<svg viewBox="0 0 240 240" xmlns="http://www.w3.org/2000/svg" fill="none">
  <defs>
    <pattern id="vpBallotGrid" width="8" height="8" patternUnits="userSpaceOnUse">
      <path d="M8 0H0V8" stroke="#6F6557" stroke-opacity=".12" stroke-width=".5"/>
    </pattern>
    <radialGradient id="vpBallotWash" cx="0" cy="0" r="1" gradientUnits="userSpaceOnUse" gradientTransform="translate(120 120) rotate(90) scale(92)">
      <stop stop-color="#5E87C6" stop-opacity=".08"/>
      <stop offset="1" stop-color="#5E87C6" stop-opacity="0"/>
    </radialGradient>
    <filter id="vpBallotGlow" x="-40%" y="-40%" width="180%" height="180%">
      <feGaussianBlur stdDeviation="2.2"/>
    </filter>
  </defs>

  <rect x="1.5" y="1.5" width="237" height="237" rx="18" fill="#fffaf3" fill-opacity=".62" stroke="#6F6557" stroke-opacity=".2"/>
  <rect x="12" y="12" width="216" height="216" rx="14" fill="url(#vpBallotGrid)" opacity=".66"/>
  <rect x="56" y="36" width="128" height="168" rx="20" stroke="#6F6557" stroke-opacity=".14" stroke-width="1.2"/>
  <rect x="84" y="54" width="72" height="132" rx="36" fill="url(#vpBallotWash)"/>

  <g opacity=".72">
    <path d="M120 44V196" stroke="#6F6557" stroke-opacity=".24" stroke-width="1.2"/>
    <path d="M98 54H142" stroke="#6F6557" stroke-opacity=".18" stroke-width="1"/>
    <path d="M98 186H142" stroke="#6F6557" stroke-opacity=".18" stroke-width="1"/>
    <path d="M92 84h10M92 120h10M92 156h10" stroke="#6F6557" stroke-opacity=".34" stroke-width="1.1" stroke-linecap="round"/>
    <path d="M138 84h10M138 120h10M138 156h10" stroke="#6F6557" stroke-opacity=".34" stroke-width="1.1" stroke-linecap="round"/>
  </g>

  <g transform="translate(120 84)">
    <circle r="18" fill="#F8F1E4" stroke="#8E523D" stroke-opacity=".46" stroke-width="1.6"/>
    <circle r="9" fill="none" stroke="#8E523D" stroke-opacity=".3" stroke-width="1"/>
    <path d="M0 -7V7M-7 0H7" stroke="#8E523D" stroke-opacity=".64" stroke-width="1.3" stroke-linecap="round"/>
  </g>

  <g transform="translate(120 120)">
    <circle r="23" fill="#FFF9EF" stroke="#3D5D92" stroke-width="2.2"/>
    <circle r="12" fill="none" stroke="#3D5D92" stroke-opacity=".34" stroke-width="1.2"/>
    <path d="M0 -11l2.7 6.1 6.5.5-4.9 4 .8 6.3-5.1-2.7-5.1 2.7.8-6.3-4.9-4 6.5-.5Z" fill="#3D5D92" fill-opacity=".82"/>
    <circle r="3.4" fill="#9C553D" opacity=".5" filter="url(#vpBallotGlow)"/>
  </g>

  <g transform="translate(120 156)">
    <circle r="18" fill="#F8F1E4" stroke="#6F6557" stroke-opacity=".38" stroke-width="1.6" stroke-dasharray="3.2 4.2"/>
    <circle r="8.5" fill="none" stroke="#6F6557" stroke-opacity=".22" stroke-width="1"/>
    <path d="M-6 0H6" stroke="#6F6557" stroke-opacity=".42" stroke-width="1.1" stroke-linecap="round"/>
  </g>

  <path d="M120 100V107" stroke="#3D5D92" stroke-opacity=".62" stroke-width="1.6" stroke-linecap="round"/>
  <path d="M120 133V140" stroke="#3D5D92" stroke-opacity=".42" stroke-width="1.4" stroke-dasharray="2.2 3.2" stroke-linecap="round"/>
</svg>
