<svg viewBox="0 0 100 100" xmlns="http://www.w3.org/2000/svg">
  <line x1="10" y1="50" x2="90" y2="50" stroke="white" stroke-width="1" opacity="0.2" />

  <g transform="translate(35, 22) scale(0.3)">
    <path d="M 50 15 L 80 25 V 50 Q 80 75 50 85 Q 20 75 20 50 V 25 Z" 
          fill="none" 
          stroke="white" 
          stroke-width="4" 
          stroke-dasharray="6 3" 
          opacity="0.8" />
    <circle cx="50" cy="45" r="15" fill="none" stroke="white" stroke-width="4" />
    <g stroke="#ffcc00" stroke-width="6" stroke-linecap="round">
      <line x1="50" y1="35" x2="50" y2="55" />
      <line x1="40" y1="45" x2="60" y2="45" />
      <circle cx="50" cy="45" r="4" fill="#ffcc00" />
    </g>
    <path d="M 40 90 H 60" stroke="#ffcc00" stroke-width="5" stroke-linecap="round" />
  </g>

  <g transform="translate(15, 46)">
    <rect width="12" height="8" rx="2" fill="none" stroke="white" stroke-width="2" />
    <line x1="3" y1="4" x2="9" y2="4" stroke="white" stroke-width="1" opacity="0.5" />
  </g>

  <g transform="translate(73, 46)">
    <rect width="12" height="8" rx="2" fill="none" stroke="#ffcc00" stroke-width="2" />
    <rect x="3" y="2" width="6" height="4" fill="#ffcc00" opacity="0.4" />
  </g>

  <line x1="50" y1="20" x2="50" y2="24" stroke="#ffcc00" stroke-width="0.5" stroke-linecap="round" stroke-dasharray="1 2" />
</svg>