<svg viewBox="0 0 800 720" xmlns="http://www.w3.org/2000/svg" font-family="monospace">
  <defs>
    <marker id="arrow-white" markerWidth="10" markerHeight="10" refX="9" refY="3" orient="auto" markerUnits="strokeWidth">
      <path d="M0,0 L0,6 L9,3 z" fill="white"/>
    </marker>
    <marker id="arrow-gold" markerWidth="10" markerHeight="10" refX="9" refY="3" orient="auto" markerUnits="strokeWidth">
      <path d="M0,0 L0,6 L9,3 z" fill="#ffcc00"/>
    </marker>
  </defs>
  <rect width="800" height="720" fill="#1a1a1a78"/>
  <g stroke="white" stroke-width="1" stroke-dasharray="4 4" opacity="0.3">
    <line x1="50" y1="70" x2="750" y2="70"/>
    <line x1="50" y1="255" x2="750" y2="255"/>
    <line x1="50" y1="365" x2="750" y2="365"/>
    <line x1="50" y1="560" x2="750" y2="560"/>
  </g>
  <g fill="white" font-size="12" text-anchor="middle" opacity="0.9">
    <text x="100" y="40">client</text>
    <text x="100" y="60" font-style="italic">κ</text>
    <text x="250" y="40">replicas</text>
    <text x="220" y="60">ρ₁</text>
    <text x="280" y="60">ρ₂</text>
    <text x="450" y="40">leaders</text>
    <text x="450" y="60">λ₂</text>
    <text x="650" y="40">acceptors</text>
    <text x="610" y="60">α₁</text>
    <text x="650" y="60">α₂</text>
    <text x="690" y="60">α₃</text>
  </g>
  <g stroke="white" stroke-width="1" opacity="0.15">
    <line x1="100" y1="80" x2="100" y2="680"/>
    <line x1="220" y1="80" x2="220" y2="680"/>
    <line x1="280" y1="80" x2="280" y2="680"/>
    <line x1="450" y1="80" x2="450" y2="680"/>
    <line x1="610" y1="80" x2="610" y2="680"/>
    <line x1="650" y1="80" x2="650" y2="680"/>
    <line x1="690" y1="80" x2="690" y2="680"/>
  </g>
  <text x="490" y="110" font-size="10"  fill="#ffcc00">scout</text>
        <line x1="483" y1="105" x2="483" y2="240" stroke="white" />

  <g stroke="#ffcc00" stroke-width="1.5" fill="#ffcc00">
    <path d="M 450 100 L 480 115" stroke-dasharray="2 1" marker-end="url(#arrow-gold)"/>
    <g marker-end="url(#arrow-gold)" opacity="0.9">
      <line x1="483" y1="115" x2="605" y2="140"/>
      <line x1="483" y1="115" x2="645" y2="160"/>
      <line x1="483" y1="115" x2="685" y2="185" opacity="0.6"/>
    </g>
    <text x="560" y="125" fill="white" font-size="11">p1a</text>
    <g marker-end="url(#arrow-gold)" stroke="#ffcc00">
      <line x1="610" y1="180" x2="490" y2="205"/>
      <line x1="650" y1="190" x2="490" y2="215"/>
    </g>

    <g marker-end="url(#arrow-gold)" stroke-dasharray="3 2">
     
      <line x1="690" y1="200" x2="490" y2="230" opacity="0.4"/>
    </g>
    <text x="550" y="185" fill="white" font-size="11">p1b</text>
    <path d="M 480 230 L 455 245" marker-end="url(#arrow-gold)"/>
    <text x="384" y="255">adopted</text>
  </g>
  <g stroke="white" stroke-width="1.5" fill="white" marker-end="url(#arrow-white)">
    <line x1="100" y1="300" x2="215" y2="320"/>
     <line x1="100" y1="300" x2="275" y2="305"/>
    <text x="160" y="295" font-size="11" stroke="none">request</text>
    <line x1="280" y1="340" x2="445" y2="365"/>
        <line x1="280" y1="360" x2="445" y2="385" stroke-dasharray="3 2" opacity="0.5"/>

    <text x="360" y="350" font-size="11" stroke="none">propose</text>
  </g>
        <line x1="483" y1="365" x2="483" y2="520" stroke="white" />

  <g stroke="#ffcc00" stroke-width="1.5" fill="#ffcc00">
    <path d="M 450 370 L 480 385" stroke-dasharray="2 1" marker-end="url(#arrow-gold)"/>
    <text x="455" y="355" font-size="10">commander</text>
    
    <g marker-end="url(#arrow-gold)" opacity="0.9">
      <line x1="483" y1="385" x2="605" y2="410"/>
      <line x1="483" y1="385" x2="645" y2="430"/>
      <line x1="483" y1="385" x2="685" y2="450" opacity="0.6"/>
    </g>
    
    <text x="560" y="400" fill="white" font-size="11">p2a</text>
    <g marker-end="url(#arrow-gold)" stroke="#ffcc00">
      <line x1="610" y1="450" x2="490" y2="475"/>
      <line x1="650" y1="460" x2="490" y2="485"/>
    </g>
    <g marker-end="url(#arrow-gold)" stroke-dasharray="3 2">
      <line x1="690" y1="470" x2="490" y2="500" opacity="0.4"/>
    </g>
    <text x="540" y="457" fill="white" font-size="11">p2b</text>
  </g>

  
  <g stroke="white" stroke-width="1.5" fill="white" marker-end="url(#arrow-white)">
    <g font-weight="bold">
      <line x1="480" y1="500" x2="225" y2="550"/>
      <line x1="480" y1="500" x2="285" y2="555"/>
      <text x="358" y="504" stroke="none">decision</text>
    </g>
    <g opacity="0.8" stroke-width="1">
      <line x1="220" y1="580" x2="105" y2="610"/>
      <line x1="280" y1="585" x2="105" y2="625" stroke-dasharray="2 2"/>
      <text x="130" y="585" font-size="11" stroke="none" font-weight="normal">response</text>
    </g>
  </g>
</svg>
