<svg viewBox="0 0 100 100" xmlns="http://www.w3.org/2000/svg">
  <defs>
    <radialGradient id="pmaxShine" cx="50%" cy="50%" r="50%">
      <stop offset="0%" stop-color="#ffcc00" stop-opacity="0.4" />
      <stop offset="100%" stop-color="#ffcc00" stop-opacity="0" />
    </radialGradient>
  </defs>

  <line x1="50" y1="20" x2="50" y2="80" stroke="white" stroke-width="0.5" stroke-dasharray="2 2" opacity="0.3" />

  <g transform="translate(15, 30)" opacity="0.6">
    <rect x="0" y="0" width="20" height="10" rx="1" fill="none" stroke="white" stroke-width="1.5" stroke-dasharray="2 1" />
    <rect x="0" y="20" width="20" height="10" rx="1" fill="none" stroke="white" stroke-width="1.5" />
    <rect x="0" y="40" width="20" height="10" rx="1" fill="none" stroke="white" stroke-width="1.5" stroke-dasharray="2 1" />
  </g>

  <g transform="translate(65, 30)">
    <circle cx="10" cy="5" r="15" fill="url(#pmaxShine)" />
    <rect x="0" y="0" width="20" height="10" rx="1" fill="#1a1a1a" stroke="#ffcc00" stroke-width="2" />
    <line x1="5" y1="5" x2="15" y2="5" stroke="#ffcc00" stroke-width="1.5" />
    
    <rect x="0" y="20" width="20" height="10" rx="1" fill="none" stroke="white" stroke-width="0.5" opacity="0.2" />
  </g>

  <g transform="translate(42, 45)">
    <path d="M 12 0 L 0 8 L 12 16 Z" fill="#ffcc00" opacity="0.8" />
  </g>

  <g transform="translate(38, 75)">
    <rect x="0" y="0" width="24" height="12" rx="1" fill="#1a1a1a" stroke="#ffcc00" stroke-width="2" />
    <g stroke="#ffcc00" stroke-width="2" stroke-linecap="round">
      <line x1="6" y1="4" x2="18" y2="4" />
      <line x1="6" y1="8" x2="18" y2="8" />
    </g>
    <path d="M 26 0 L 27 3 L 30 4 L 27 5 L 26 8 L 25 5 L 22 4 L 25 3 Z" fill="#ffcc00" />
  </g>

  <circle cx="50" cy="15" r="2" fill="white" opacity="0.5" />
</svg>